<svg xmlns="http://www.w3.org/2000/svg" viewBox="0 0 600 360" fill="none">
  <rect width="600" height="360" rx="32" fill="#eef3ff"/>
  <path d="M95 248c16-32 42-66 76-91 33-23 79-37 138-39 61-2 108 11 145 34 34 21 58 52 76 96l31 4c12 2 21 12 21 24v16c0 11-9 20-20 20h-27c-7 31-32 54-64 54s-58-22-65-52H246c-7 30-32 52-64 52s-58-23-65-54h-16c-15 0-27-12-27-27v-4c0-14 8-28 21-33z" fill="#ffffff" stroke="#8e9dd2" stroke-width="5"/>
  <path d="M210 150c34-18 97-27 153-25 39 1 71 7 98 18 27 11 50 26 67 47H166c10-15 25-29 44-40z" fill="#131d3e" stroke="#b7c5ef" stroke-width="4"/>
  <rect x="236" y="202" width="120" height="44" rx="10" fill="#111934"/>
  <rect x="370" y="202" width="126" height="44" rx="10" fill="#111934"/>
  <circle cx="183" cy="299" r="43" fill="#252f4d"/><circle cx="183" cy="299" r="24" fill="#bdc9ee"/>
  <circle cx="469" cy="299" r="43" fill="#252f4d"/><circle cx="469" cy="299" r="24" fill="#bdc9ee"/>
</svg>
