<svg xmlns="http://www.w3.org/2000/svg" viewBox="0 0 94 66" fill="none">
  <path d="M47 7l6.1 10.7 12.3 2.6-8.5 8.8 1.3 12.2L47 36l-11.2 5.3L37 29.1l-8.5-8.8 12.3-2.6L47 7z" fill="#fff"/>
  <path d="M14 23C7 20 3.3 15.4 1 10.3c8.5 2.5 16.5 5.8 23.9 10.1C31.5 24.3 38 29 44 34.8 32.6 35 22.5 31 14 23z" fill="#fff" opacity=".93"/>
  <path d="M80 23c7-3 10.7-7.6 13-12.7-8.5 2.5-16.5 5.8-23.9 10.1C62.5 24.3 56 29 50 34.8 61.4 35 71.5 31 80 23z" fill="#fff" opacity=".93"/>
  <path d="M13 40c9.8 1.8 19.8 1.6 30-.9-5.8 6.8-12.7 11.9-20.6 15.3-5.8 2.5-11.9 4-18.2 4.7 1.8-6.5 4.8-11.8 8.8-16.1z" fill="#fff" opacity=".84"/>
  <path d="M81 40c-9.8 1.8-19.8 1.6-30-.9 5.8 6.8 12.7 11.9 20.6 15.3 5.8 2.5 11.9 4 18.2 4.7-1.8-6.5-4.8-11.8-8.8-16.1z" fill="#fff" opacity=".84"/>
  <path d="M42 54h10v8H42z" fill="#fff"/>
</svg>
