<svg xmlns="http://www.w3.org/2000/svg" viewBox="0 0 600 420" fill="none">
  <defs><linearGradient id="sky" x1="300" y1="0" x2="300" y2="240"><stop stop-color="#dce7ff"/><stop offset="1" stop-color="#f8fbff"/></linearGradient></defs>
  <rect width="600" height="420" fill="url(#sky)"/>
  <path d="M0 250l95-95 66 40 83-84 110 115 80-74 166 98v170H0V250z" fill="#c8d7ff"/>
  <path d="M0 287l117-106 83 60 109-89 93 90 76-48 122 93v133H0V287z" fill="#a9bfec"/>
  <path d="M70 420c54-79 117-114 188-113 80 0 139 33 202 113" stroke="#f5f8ff" stroke-width="66" stroke-linecap="round"/>
  <path d="M175 306h140l40 18-28 22H146l29-20z" fill="#ffffff" stroke="#96a6dc" stroke-width="4"/>
  <circle cx="190" cy="352" r="18" fill="#27324f"/><circle cx="190" cy="352" r="9" fill="#c0caee"/>
  <circle cx="322" cy="352" r="18" fill="#27324f"/><circle cx="322" cy="352" r="9" fill="#c0caee"/>
</svg>
